<svg xmlns="http://www.w3.org/2000/svg" viewBox="0 0 400 110" width="400" height="110">
  <defs>
    <!-- Realistic leaf gradients with multiple stops -->
    <linearGradient id="leafDeep" x1="0%" y1="0%" x2="90%" y2="100%">
      <stop offset="0%" style="stop-color:#2E7D12"/>
      <stop offset="25%" style="stop-color:#256B0E"/>
      <stop offset="50%" style="stop-color:#1E5A0A"/>
      <stop offset="75%" style="stop-color:#1A4F08"/>
      <stop offset="100%" style="stop-color:#154206"/>
    </linearGradient>
    <linearGradient id="leafGreen" x1="0%" y1="0%" x2="85%" y2="100%">
      <stop offset="0%" style="stop-color:#4CAF50"/>
      <stop offset="20%" style="stop-color:#43A047"/>
      <stop offset="50%" style="stop-color:#388E3C"/>
      <stop offset="80%" style="stop-color:#2E7D32"/>
      <stop offset="100%" style="stop-color:#256B28"/>
    </linearGradient>
    <linearGradient id="leafBright" x1="10%" y1="0%" x2="90%" y2="100%">
      <stop offset="0%" style="stop-color:#81C784"/>
      <stop offset="30%" style="stop-color:#66BB6A"/>
      <stop offset="60%" style="stop-color:#4CAF50"/>
      <stop offset="100%" style="stop-color:#43A047"/>
    </linearGradient>
    <linearGradient id="leafHighlight" x1="0%" y1="0%" x2="100%" y2="0%">
      <stop offset="0%" style="stop-color:#A5D6A7;stop-opacity:0.6"/>
      <stop offset="50%" style="stop-color:#81C784;stop-opacity:0.3"/>
      <stop offset="100%" style="stop-color:#66BB6A;stop-opacity:0.1"/>
    </linearGradient>
    <linearGradient id="stemGrad" x1="0%" y1="0%" x2="100%" y2="0%">
      <stop offset="0%" style="stop-color:#33691E"/>
      <stop offset="30%" style="stop-color:#558B2F"/>
      <stop offset="50%" style="stop-color:#689F38"/>
      <stop offset="70%" style="stop-color:#558B2F"/>
      <stop offset="100%" style="stop-color:#33691E"/>
    </linearGradient>
    <!-- Soil -->
    <radialGradient id="soilGrad" cx="50%" cy="30%" r="70%">
      <stop offset="0%" style="stop-color:#8D6E4C"/>
      <stop offset="40%" style="stop-color:#6D4C2E"/>
      <stop offset="100%" style="stop-color:#4E3520"/>
    </radialGradient>
    <!-- Chick gradients -->
    <radialGradient id="chickBodyGrad" cx="40%" cy="35%" r="65%">
      <stop offset="0%" style="stop-color:#FDD835"/>
      <stop offset="25%" style="stop-color:#FBC02D"/>
      <stop offset="50%" style="stop-color:#F9A825"/>
      <stop offset="75%" style="stop-color:#F57F17"/>
      <stop offset="100%" style="stop-color:#EF6C00"/>
    </radialGradient>
    <radialGradient id="chickHeadGrad" cx="45%" cy="40%" r="60%">
      <stop offset="0%" style="stop-color:#FFEE58"/>
      <stop offset="40%" style="stop-color:#FDD835"/>
      <stop offset="80%" style="stop-color:#FBC02D"/>
      <stop offset="100%" style="stop-color:#F9A825"/>
    </radialGradient>
    <radialGradient id="chickBelly" cx="50%" cy="40%" r="55%">
      <stop offset="0%" style="stop-color:#FFF9C4;stop-opacity:0.7"/>
      <stop offset="100%" style="stop-color:#FFF176;stop-opacity:0"/>
    </radialGradient>
    <!-- Cow gradients -->
    <radialGradient id="cowBodyGrad" cx="40%" cy="35%" r="65%">
      <stop offset="0%" style="stop-color:#A1887F"/>
      <stop offset="30%" style="stop-color:#8D6E63"/>
      <stop offset="60%" style="stop-color:#795548"/>
      <stop offset="100%" style="stop-color:#5D4037"/>
    </radialGradient>
    <radialGradient id="cowHeadGrad" cx="45%" cy="40%" r="60%">
      <stop offset="0%" style="stop-color:#BCAAA4"/>
      <stop offset="40%" style="stop-color:#A1887F"/>
      <stop offset="80%" style="stop-color:#8D6E63"/>
      <stop offset="100%" style="stop-color:#795548"/>
    </radialGradient>
    <radialGradient id="cowSpot" cx="50%" cy="50%" r="50%">
      <stop offset="0%" style="stop-color:#3E2723;stop-opacity:0.7"/>
      <stop offset="100%" style="stop-color:#4E342E;stop-opacity:0.5"/>
    </radialGradient>
    <!-- Pig gradients -->
    <radialGradient id="pigBodyGrad" cx="40%" cy="35%" r="65%">
      <stop offset="0%" style="stop-color:#FFCCBC"/>
      <stop offset="30%" style="stop-color:#FFAB91"/>
      <stop offset="60%" style="stop-color:#FF8A65"/>
      <stop offset="100%" style="stop-color:#FF7043"/>
    </radialGradient>
    <radialGradient id="pigHeadGrad" cx="45%" cy="40%" r="60%">
      <stop offset="0%" style="stop-color:#FFCCBC"/>
      <stop offset="50%" style="stop-color:#FFAB91"/>
      <stop offset="100%" style="stop-color:#FF8A65"/>
    </radialGradient>
    <radialGradient id="pigSnout" cx="50%" cy="45%" r="55%">
      <stop offset="0%" style="stop-color:#FFAB91"/>
      <stop offset="60%" style="stop-color:#FF8A65"/>
      <stop offset="100%" style="stop-color:#E64A19"/>
    </radialGradient>
    <!-- Emblem gradients -->
    <radialGradient id="emblemGrad" cx="35%" cy="35%" r="65%">
      <stop offset="0%" style="stop-color:#388E3C"/>
      <stop offset="50%" style="stop-color:#2E7D32"/>
      <stop offset="80%" style="stop-color:#1B5E20"/>
      <stop offset="100%" style="stop-color:#0D3B0F"/>
    </radialGradient>
    <radialGradient id="emblemInner" cx="45%" cy="40%" r="55%">
      <stop offset="0%" style="stop-color:#2E7D32;stop-opacity:0.4"/>
      <stop offset="100%" style="stop-color:#0D3B0F;stop-opacity:0.1"/>
    </radialGradient>
    <!-- Gold gradient -->
    <linearGradient id="goldGrad" x1="0%" y1="0%" x2="100%" y2="0%">
      <stop offset="0%" style="stop-color:#C8A415"/>
      <stop offset="25%" style="stop-color:#E8B82A"/>
      <stop offset="50%" style="stop-color:#F5D44A"/>
      <stop offset="75%" style="stop-color:#E8B82A"/>
      <stop offset="100%" style="stop-color:#C8A415"/>
    </linearGradient>
    <linearGradient id="goldRing" x1="0%" y1="0%" x2="100%" y2="100%">
      <stop offset="0%" style="stop-color:#D4A017"/>
      <stop offset="50%" style="stop-color:#F5D44A"/>
      <stop offset="100%" style="stop-color:#B8890F"/>
    </linearGradient>
    <!-- Eye gradients -->
    <radialGradient id="eyeGrad" cx="35%" cy="35%" r="50%">
      <stop offset="0%" style="stop-color:#4E342E"/>
      <stop offset="100%" style="stop-color:#1A1A2E"/>
    </radialGradient>
    <!-- Feather textures -->
    <filter id="fuzz" x="-5%" y="-5%" width="110%" height="110%">
      <feTurbulence type="fractalNoise" baseFrequency="0.9" numOctaves="3" seed="2"/>
      <feDisplacementMap in="SourceGraphic" scale="1.2"/>
    </filter>
    <filter id="softGlow" x="-10%" y="-10%" width="120%" height="120%">
      <feGaussianBlur in="SourceGraphic" stdDeviation="0.8"/>
    </filter>
    <!-- Shadow filters -->
    <filter id="dropShadow" x="-20%" y="-10%" width="140%" height="130%">
      <feGaussianBlur in="SourceAlpha" stdDeviation="2" result="blur"/>
      <feOffset dx="1" dy="2" result="offsetBlur"/>
      <feFlood flood-color="#000" flood-opacity="0.25"/>
      <feComposite in2="offsetBlur" operator="in"/>
      <feMerge><feMergeNode/><feMergeNode in="SourceGraphic"/></feMerge>
    </filter>
    <filter id="lightShadow" x="-15%" y="-10%" width="130%" height="125%">
      <feGaussianBlur in="SourceAlpha" stdDeviation="1" result="blur"/>
      <feOffset dx="0.5" dy="1" result="offsetBlur"/>
      <feFlood flood-color="#000" flood-opacity="0.15"/>
      <feComposite in2="offsetBlur" operator="in"/>
      <feMerge><feMergeNode/><feMergeNode in="SourceGraphic"/></feMerge>
    </filter>
  </defs>

  <!-- ==================== EMBLEM ==================== -->
  <g filter="url(#dropShadow)">
    <!-- Outer circle - deep green -->
    <circle cx="55" cy="55" r="53" fill="url(#emblemGrad)"/>
    <!-- Gold ring -->
    <circle cx="55" cy="55" r="51" fill="none" stroke="url(#goldRing)" stroke-width="1.5" opacity="0.7"/>
    <!-- Inner circle -->
    <circle cx="55" cy="55" r="48" fill="#1B5E20" opacity="0.5"/>
    <!-- Subtle inner glow -->
    <circle cx="55" cy="55" r="48" fill="url(#emblemInner)"/>

    <!-- ==================== SOIL ==================== -->
    <ellipse cx="55" cy="78" rx="24" ry="7" fill="url(#soilGrad)" opacity="0.85"/>
    <ellipse cx="55" cy="77" rx="20" ry="4" fill="#8D6E4C" opacity="0.3"/>
    <!-- Soil texture dots -->
    <circle cx="42" cy="79" r="0.8" fill="#5D4037" opacity="0.4"/>
    <circle cx="48" cy="80" r="0.6" fill="#5D4037" opacity="0.3"/>
    <circle cx="58" cy="78" r="0.7" fill="#5D4037" opacity="0.35"/>
    <circle cx="64" cy="79" r="0.5" fill="#5D4037" opacity="0.3"/>
    <circle cx="53" cy="81" r="0.6" fill="#5D4037" opacity="0.25"/>

    <!-- ==================== STEM ==================== -->
    <path d="M55,76 Q54,66 55,52 Q56,48 55,44" stroke="url(#stemGrad)" stroke-width="3.5" fill="none" stroke-linecap="round"/>
    <!-- Stem highlight -->
    <path d="M55.5,74 Q54.5,65 55.5,52" stroke="#81C784" stroke-width="0.6" fill="none" opacity="0.3"/>

    <!-- ==================== LEFT LEAF (larger, detailed) ==================== -->
    <g transform="translate(55,58)">
      <!-- Leaf body -->
      <path d="M0,0 C-6,-4 -16,-8 -24,-4 C-22,2 -14,6 -4,3 Z" fill="url(#leafGreen)"/>
      <!-- Leaf shadow side -->
      <path d="M0,0 C-6,-4 -16,-8 -24,-4 C-22,0 -14,2 -6,1 Z" fill="#1B5E20" opacity="0.25"/>
      <!-- Main vein -->
      <path d="M0,0 C-6,-3 -14,-6 -21,-4" fill="none" stroke="#1B5E20" stroke-width="0.8" opacity="0.6"/>
      <!-- Secondary veins -->
      <path d="M-6,-2 C-8,0 -10,1 -12,1" fill="none" stroke="#1B5E20" stroke-width="0.4" opacity="0.4"/>
      <path d="M-10,-4 C-12,-3 -14,-2 -15,-1" fill="none" stroke="#1B5E20" stroke-width="0.3" opacity="0.35"/>
      <path d="M-14,-5 C-16,-4 -18,-3 -19,-2" fill="none" stroke="#1B5E20" stroke-width="0.3" opacity="0.3"/>
      <!-- Light reflection -->
      <path d="M-3,-1 C-7,-3 -13,-5 -19,-4" fill="none" stroke="#A5D6A7" stroke-width="0.6" opacity="0.4"/>
      <path d="M-6,-2 C-10,-3 -14,-3 -17,-3" fill="none" stroke="#C8E6C9" stroke-width="0.3" opacity="0.25"/>
      <!-- Leaf edge highlight -->
      <path d="M0,0 C-2,-2 -6,-4 -10,-5" fill="none" stroke="#81C784" stroke-width="0.4" opacity="0.3"/>
    </g>

    <!-- ==================== RIGHT LEAF ==================== -->
    <g transform="translate(55,50)">
      <!-- Leaf body -->
      <path d="M0,0 C6,-6 16,-12 22,-8 C20,-2 12,2 2,2 Z" fill="url(#leafBright)"/>
      <!-- Shadow -->
      <path d="M0,0 C6,-6 16,-12 22,-8 C20,-4 12,-1 4,0 Z" fill="#2E7D32" opacity="0.2"/>
      <!-- Main vein -->
      <path d="M0,0 C6,-5 14,-9 20,-8" fill="none" stroke="#388E3C" stroke-width="0.7" opacity="0.5"/>
      <!-- Secondary veins -->
      <path d="M6,-3 C8,-2 10,-1 12,0" fill="none" stroke="#388E3C" stroke-width="0.35" opacity="0.35"/>
      <path d="M10,-5 C12,-4 14,-3 15,-2" fill="none" stroke="#388E3C" stroke-width="0.3" opacity="0.3"/>
      <!-- Light reflection -->
      <path d="M3,-1 C7,-4 14,-7 19,-7" fill="none" stroke="#C8E6C9" stroke-width="0.5" opacity="0.35"/>
    </g>

    <!-- ==================== TOP SPROUT (fresh growth) ==================== -->
    <g transform="translate(55,44)">
      <path d="M0,0 C-3,-6 -5,-12 -2,-15 C1,-10 1,-5 0,0Z" fill="#66BB6A" opacity="0.95"/>
      <path d="M0,0 C3,-6 5,-12 2,-15 C-1,-10 -1,-5 0,0Z" fill="#4CAF50" opacity="0.9"/>
      <!-- Veins on sprout -->
      <path d="M0,0 C-2,-5 -3,-9 -2,-13" fill="none" stroke="#388E3C" stroke-width="0.4" opacity="0.4"/>
      <path d="M0,0 C2,-5 3,-9 2,-13" fill="none" stroke="#388E3C" stroke-width="0.4" opacity="0.4"/>
      <!-- Highlight -->
      <path d="M-1,-2 C-2,-6 -3,-10 -2,-13" fill="none" stroke="#A5D6A7" stroke-width="0.3" opacity="0.35"/>
    </g>

    <!-- ==================== CHICK (left side) ==================== -->
    <g transform="translate(32,72) scale(0.65)" filter="url(#lightShadow)">
      <!-- Body shadow -->
      <ellipse cx="0" cy="2" rx="10" ry="7" fill="#000" opacity="0.08"/>
      <!-- Body -->
      <ellipse cx="0" cy="0" rx="10" ry="7.5" fill="url(#chickBodyGrad)"/>
      <!-- Fluffy chest highlight -->
      <ellipse cx="-2" cy="-1" rx="6" ry="5" fill="url(#chickBelly)"/>
      <!-- Fluffy feather texture strokes -->
      <path d="M-6,-3 C-7,-4 -5,-5 -4,-4" fill="#FDD835" opacity="0.4"/>
      <path d="M-4,-4 C-5,-5 -3,-6 -2,-5" fill="#FFEE58" opacity="0.3"/>
      <path d="M-3,-2 C-4,-3 -2,-4 -1,-3" fill="#FFF176" opacity="0.25"/>
      <path d="M2,-4 C1,-5 3,-6 4,-5" fill="#FBC02D" opacity="0.35"/>
      <path d="M-5,1 C-6,0 -4,-1 -3,0" fill="#FFF9C4" opacity="0.2"/>
      <path d="M4,-1 C3,-2 5,-3 6,-2" fill="#F9A825" opacity="0.3"/>

      <!-- Head -->
      <circle cx="8" cy="-5" r="6.5" fill="url(#chickHeadGrad)"/>
      <!-- Cheek blush -->
      <circle cx="5" cy="-3" r="2" fill="#FFAB91" opacity="0.2"/>

      <!-- Eye -->
      <circle cx="10" cy="-6.5" r="1.8" fill="url(#eyeGrad)"/>
      <circle cx="10.5" cy="-7" r="0.6" fill="white" opacity="0.85"/>
      <circle cx="9.8" cy="-6" r="0.25" fill="white" opacity="0.4"/>

      <!-- Beak -->
      <path d="M13,-5 L17,-4.2 L13,-3.5 Z" fill="#E65100"/>
      <path d="M13,-5 L17,-4.2 L13,-4.3 Z" fill="#EF6C00" opacity="0.7"/>
      <!-- Beak highlight -->
      <line x1="13.5" y1="-4.5" x2="16" y2="-4.3" stroke="#FF8A65" stroke-width="0.3" opacity="0.4"/>

      <!-- Comb -->
      <path d="M6,-10 C5,-13 7,-14 8,-11 C9,-14 10,-13 9,-10 C10,-12 11,-11 10,-9" fill="#D32F2F" opacity="0.85"/>
      <path d="M6,-10 C6,-12 7,-13 8,-11" fill="#E53935" opacity="0.5"/>

      <!-- Wattle -->
      <path d="M12,-3 C13,-2 12,-1 11,-2" fill="#D32F2F" opacity="0.7"/>

      <!-- Wing -->
      <path d="M-4,-2 C-8,-4 -6,-8 -2,-5 C0,-4 -1,-2 -4,-2Z" fill="#F57F17" opacity="0.6"/>
      <path d="M-4,-2 C-6,-3 -5,-6 -2,-4" fill="none" stroke="#EF6C00" stroke-width="0.4" opacity="0.3"/>

      <!-- Tail feathers -->
      <path d="M-10,-1 C-14,-3 -13,-7 -9,-3" fill="#F57F17" opacity="0.6"/>
      <path d="M-10,1 C-15,0 -14,-5 -9,-1" fill="#EF6C00" opacity="0.45"/>
      <path d="M-9,-2 C-12,-4 -11,-7 -8,-3" fill="#F9A825" opacity="0.35"/>

      <!-- Legs -->
      <line x1="-2" y1="7" x2="-3" y2="12" stroke="#E65100" stroke-width="1.2" stroke-linecap="round"/>
      <line x1="2" y1="7" x2="3" y2="12" stroke="#E65100" stroke-width="1.2" stroke-linecap="round"/>
      <!-- Toes -->
      <line x1="-5" y1="12" x2="-1" y2="12" stroke="#E65100" stroke-width="0.8" stroke-linecap="round"/>
      <line x1="1" y1="12" x2="5" y2="12" stroke="#E65100" stroke-width="0.8" stroke-linecap="round"/>
      <line x1="-4" y1="12" x2="-4" y2="14" stroke="#E65100" stroke-width="0.6" stroke-linecap="round"/>
      <line x1="4" y1="12" x2="4" y2="14" stroke="#E65100" stroke-width="0.6" stroke-linecap="round"/>
    </g>

    <!-- ==================== PIG (bottom center) ==================== -->
    <g transform="translate(52,80) scale(0.45)" filter="url(#lightShadow)">
      <!-- Body -->
      <ellipse cx="0" cy="0" rx="14" ry="9" fill="url(#pigBodyGrad)"/>
      <!-- Body shading -->
      <ellipse cx="-3" cy="2" rx="10" ry="6" fill="#FF7043" opacity="0.3"/>
      <!-- Belly highlight -->
      <ellipse cx="0" cy="2" rx="8" ry="4" fill="#FFCCBC" opacity="0.35"/>

      <!-- Head -->
      <ellipse cx="14" cy="-2" rx="8" ry="7" fill="url(#pigHeadGrad)"/>
      <!-- Ear (floppy) -->
      <path d="M10,-8 C8,-14 12,-15 14,-10" fill="#FF8A65" opacity="0.8"/>
      <path d="M10,-8 C9,-12 12,-13 13,-10" fill="#E64A19" opacity="0.2"/>
      <path d="M16,-8 C14,-14 18,-15 20,-10" fill="#FF8A65" opacity="0.7"/>

      <!-- Snout -->
      <ellipse cx="20" cy="-1" rx="5" ry="4" fill="url(#pigSnout)"/>
      <!-- Nostrils -->
      <ellipse cx="18.5" cy="-1" rx="1.2" ry="1.5" fill="#BF360C" opacity="0.6"/>
      <ellipse cx="21.5" cy="-1" rx="1.2" ry="1.5" fill="#BF360C" opacity="0.6"/>
      <!-- Snout highlight -->
      <ellipse cx="20" cy="-2.5" rx="2" ry="1" fill="#FFCCBC" opacity="0.3"/>

      <!-- Eye -->
      <circle cx="16" cy="-4" r="1.5" fill="url(#eyeGrad)"/>
      <circle cx="16.4" cy="-4.4" r="0.5" fill="white" opacity="0.8"/>

      <!-- Legs -->
      <rect x="-8" y="8" width="3" height="6" rx="1.5" fill="#FF7043"/>
      <rect x="-2" y="8" width="3" height="6" rx="1.5" fill="#FF8A65"/>
      <rect x="4" y="8" width="3" height="6" rx="1.5" fill="#FF8A65"/>
      <rect x="10" y="8" width="3" height="6" rx="1.5" fill="#FF7043"/>
      <!-- Hooves -->
      <rect x="-8.5" y="13" width="4" height="2" rx="1" fill="#5D4037" opacity="0.6"/>
      <rect x="-2.5" y="13" width="4" height="2" rx="1" fill="#5D4037" opacity="0.6"/>
      <rect x="3.5" y="13" width="4" height="2" rx="1" fill="#5D4037" opacity="0.6"/>
      <rect x="9.5" y="13" width="4" height="2" rx="1" fill="#5D4037" opacity="0.6"/>

      <!-- Curly tail -->
      <path d="M-14,0 C-18,-2 -17,2 -15,0 C-17,3 -19,1 -16,-1" fill="none" stroke="#FF8A65" stroke-width="1.5" stroke-linecap="round" opacity="0.7"/>
    </g>

    <!-- ==================== COW (right side) ==================== -->
    <g transform="translate(78,68) scale(0.52)" filter="url(#lightShadow)">
      <!-- Body -->
      <ellipse cx="0" cy="0" rx="14" ry="9" fill="url(#cowBodyGrad)"/>
      <!-- Body shading -->
      <ellipse cx="-3" cy="2" rx="10" ry="6" fill="#5D4037" opacity="0.25"/>
      <!-- Belly highlight -->
      <ellipse cx="0" cy="3" rx="8" ry="4" fill="#BCAAA4" opacity="0.2"/>

      <!-- Spots -->
      <ellipse cx="4" cy="-3" rx="5" ry="3.5" fill="url(#cowSpot)" transform="rotate(-15,4,-3)"/>
      <ellipse cx="-6" cy="1" rx="4" ry="2.5" fill="url(#cowSpot)" transform="rotate(10,-6,1)"/>
      <ellipse cx="2" cy="3" rx="3" ry="2" fill="url(#cowSpot)" opacity="0.4"/>

      <!-- Head -->
      <ellipse cx="15" cy="-4" rx="7" ry="6" fill="url(#cowHeadGrad)"/>
      <!-- Face patch -->
      <ellipse cx="18" cy="-2" rx="4" ry="3" fill="#D7CCC8" opacity="0.4"/>

      <!-- Eyes -->
      <circle cx="13" cy="-6" r="1.3" fill="url(#eyeGrad)"/>
      <circle cx="13.4" cy="-6.3" r="0.4" fill="white" opacity="0.8"/>
      <circle cx="17" cy="-6" r="1.3" fill="url(#eyeGrad)"/>
      <circle cx="17.4" cy="-6.3" r="0.4" fill="white" opacity="0.8"/>

      <!-- Ears -->
      <ellipse cx="10" cy="-9" rx="4" ry="2" fill="#A1887F" transform="rotate(-30,10,-9)"/>
      <ellipse cx="10" cy="-9" rx="2.5" ry="1" fill="#FFCCBC" opacity="0.3" transform="rotate(-30,10,-9)"/>
      <ellipse cx="19" cy="-9" rx="4" ry="2" fill="#A1887F" transform="rotate(30,19,-9)"/>
      <ellipse cx="19" cy="-9" rx="2.5" ry="1" fill="#FFCCBC" opacity="0.3" transform="rotate(30,19,-9)"/>

      <!-- Horns -->
      <path d="M11,-11 C10,-16 12,-17 13,-13" fill="none" stroke="#D7CCC8" stroke-width="1.8" stroke-linecap="round"/>
      <path d="M18,-11 C17,-16 19,-17 20,-13" fill="none" stroke="#D7CCC8" stroke-width="1.8" stroke-linecap="round"/>
      <!-- Horn tips -->
      <circle cx="12.5" cy="-13" r="0.6" fill="#BCAAA4"/>
      <circle cx="19.5" cy="-13" r="0.6" fill="#BCAAA4"/>

      <!-- Muzzle -->
      <ellipse cx="21" cy="-3" rx="4" ry="3.5" fill="#D7CCC8" opacity="0.7"/>
      <!-- Nostrils -->
      <ellipse cx="20" cy="-3" rx="1" ry="1.2" fill="#5D4037" opacity="0.4"/>
      <ellipse cx="22" cy="-3" rx="1" ry="1.2" fill="#5D4037" opacity="0.4"/>

      <!-- Legs -->
      <line x1="-8" y1="9" x2="-8" y2="17" stroke="#5D4037" stroke-width="2.5" stroke-linecap="round"/>
      <line x1="-3" y1="9" x2="-3" y2="17" stroke="#5D4037" stroke-width="2.5" stroke-linecap="round"/>
      <line x1="4" y1="9" x2="4" y2="17" stroke="#5D4037" stroke-width="2.5" stroke-linecap="round"/>
      <line x1="9" y1="9" x2="9" y2="17" stroke="#5D4037" stroke-width="2.5" stroke-linecap="round"/>
      <!-- Hooves -->
      <rect x="-10" y="16" width="4" height="2.5" rx="1" fill="#3E2723"/>
      <rect x="-5" y="16" width="4" height="2.5" rx="1" fill="#3E2723"/>
      <rect x="2" y="16" width="4" height="2.5" rx="1" fill="#3E2723"/>
      <rect x="7" y="16" width="4" height="2.5" rx="1" fill="#3E2723"/>

      <!-- Tail -->
      <path d="M-14,0 C-18,-3 -17,3 -15,0" fill="none" stroke="#5D4037" stroke-width="1.2" stroke-linecap="round"/>
      <ellipse cx="-16" cy="1" rx="2" ry="1.5" fill="#5D4037" opacity="0.5"/>
    </g>
  </g>

  <!-- ==================== WORDMARK ==================== -->
  <defs>
    <linearGradient id="textGrad" x1="0%" y1="0%" x2="0%" y2="100%">
      <stop offset="0%" style="stop-color:#1A1A2E"/>
      <stop offset="100%" style="stop-color:#2C2C44"/>
    </linearGradient>
    <linearGradient id="greenText" x1="0%" y1="0%" x2="0%" y2="100%">
      <stop offset="0%" style="stop-color:#2E7D32"/>
      <stop offset="50%" style="stop-color:#1B5E20"/>
      <stop offset="100%" style="stop-color:#0D3B0F"/>
    </linearGradient>
  </defs>

  <!-- FARM -->
  <text x="120" y="52" font-family="Poppins, 'Segoe UI', Arial, sans-serif" font-weight="800" font-size="36" fill="url(#textGrad)" letter-spacing="2">FARM</text>
  <!-- PLACE -->
  <text x="240" y="52" font-family="Poppins, 'Segoe UI', Arial, sans-serif" font-weight="800" font-size="36" fill="url(#greenText)" letter-spacing="2">PLACE</text>

  <!-- Gold underline -->
  <rect x="120" y="59" width="180" height="3.5" rx="1.75" fill="url(#goldGrad)"/>

  <!-- CONSULTANCIES -->
  <text x="120" y="78" font-family="Inter, 'Segoe UI', Arial, sans-serif" font-weight="500" font-size="10.5" fill="#6B7B8D" letter-spacing="5">CONSULTANCIES</text>

  <!-- Tagline dots -->
  <circle cx="120" cy="88" r="2" fill="#2E7D32" opacity="0.4"/>
  <circle cx="127" cy="88" r="2" fill="#D4A017" opacity="0.4"/>
  <circle cx="134" cy="88" r="2" fill="#E65100" opacity="0.4"/>

  <!-- Motto -->
  <text x="120" y="100" font-family="Inter, 'Segoe UI', Arial, sans-serif" font-weight="400" font-size="7.5" fill="#95A5B5" font-style="italic" letter-spacing="1">Learn Today. Apply Tomorrow. Profit for Years.</text>
</svg>
